<?xml version="1.0" encoding="UTF-8" standalone="no"?>
<!-- Created with Inkscape (http://www.inkscape.org/) -->

<svg
   xmlns:dc="http://purl.org/dc/elements/1.1/"
   xmlns:cc="http://creativecommons.org/ns#"
   xmlns:rdf="http://www.w3.org/1999/02/22-rdf-syntax-ns#"
   xmlns:svg="http://www.w3.org/2000/svg"
   xmlns="http://www.w3.org/2000/svg"
   xmlns:sodipodi="http://sodipodi.sourceforge.net/DTD/sodipodi-0.dtd"
   xmlns:inkscape="http://www.inkscape.org/namespaces/inkscape"
   width="100"
   height="100"
   viewBox="0 0 100 100"
   id="svg4179"
   version="1.1"
   inkscape:version="0.91 r13725"
   sodipodi:docname="icon_linked.svg">
  <defs
     id="defs4181" />
  <sodipodi:namedview
     id="base"
     pagecolor="#ffffff"
     bordercolor="#666666"
     borderopacity="1.0"
     inkscape:pageopacity="0.0"
     inkscape:pageshadow="2"
     inkscape:zoom="2.8284273"
     inkscape:cx="-15.805513"
     inkscape:cy="55.493173"
     inkscape:document-units="px"
     inkscape:current-layer="layer1"
     showgrid="false"
     units="px"
     showguides="false"
     inkscape:window-width="1301"
     inkscape:window-height="744"
     inkscape:window-x="65"
     inkscape:window-y="24"
     inkscape:window-maximized="1" />
  <metadata
     id="metadata4184">
    <rdf:RDF>
      <cc:Work
         rdf:about="">
        <dc:format>image/svg+xml</dc:format>
        <dc:type
           rdf:resource="http://purl.org/dc/dcmitype/StillImage" />
        <dc:title></dc:title>
      </cc:Work>
    </rdf:RDF>
  </metadata>
  <g
     inkscape:label="Layer 1"
     inkscape:groupmode="layer"
     id="layer1"
     transform="translate(0,-952.36216)">
    <path
       style="opacity:1;fill:#ffffff;fill-opacity:0.80000001;stroke:none;stroke-width:8;stroke-linecap:butt;stroke-linejoin:round;stroke-miterlimit:4;stroke-dasharray:none;stroke-opacity:1"
       d="M 28.544922 20 A 6.26661 6.26661 0 0 0 22.279297 26.267578 A 6.26661 6.26661 0 0 0 28.544922 32.533203 A 6.26661 6.26661 0 0 0 34.8125 26.267578 A 6.26661 6.26661 0 0 0 28.544922 20 z M 22.695312 34.884766 L 22.695312 79.976562 L 34.396484 79.976562 L 34.396484 34.884766 L 22.695312 34.884766 z M 39.037109 34.943359 L 39.037109 80 L 51.154297 80 L 51.154297 50.851562 C 52.662233 42.995804 65.958984 43.088407 65.958984 52.349609 L 66.023438 79.646484 L 77.720703 79.646484 L 77.720703 48.496094 C 77.182775 42.245106 69.795763 35.654743 62.189453 35.402344 C 58.264874 35.272115 54.284515 36.836578 51.154297 40.998047 L 51.154297 34.943359 L 39.037109 34.943359 z "
       transform="translate(0,952.36216)"
       id="path4840" />
    <g
       id="g7714"
       transform="matrix(0.86956467,0,0,0.86956467,6.4411478,137.6064)">
      <g
         transform="matrix(1.0355474,0,0,1.0355474,-1.7773704,-36.719412)"
         id="g4806">
        <g
           id="g4802" />
        <g
           id="g4745"
           transform="matrix(0.92789651,0,0,0.92789651,-2.966024,64.70512)" />
      </g>
    </g>
  </g>
</svg>
