<?xml version="1.0" encoding="UTF-8" standalone="no"?>
<!-- Created with Inkscape (http://www.inkscape.org/) -->

<svg
   xmlns:dc="http://purl.org/dc/elements/1.1/"
   xmlns:cc="http://creativecommons.org/ns#"
   xmlns:rdf="http://www.w3.org/1999/02/22-rdf-syntax-ns#"
   xmlns:svg="http://www.w3.org/2000/svg"
   xmlns="http://www.w3.org/2000/svg"
   xmlns:sodipodi="http://sodipodi.sourceforge.net/DTD/sodipodi-0.dtd"
   xmlns:inkscape="http://www.inkscape.org/namespaces/inkscape"
   width="100"
   height="100"
   viewBox="0 0 100 100"
   id="svg5621"
   version="1.1"
   inkscape:version="0.91 r13725"
   sodipodi:docname="icon_twitter.svg">
  <defs
     id="defs5623" />
  <sodipodi:namedview
     id="base"
     pagecolor="#ffffff"
     bordercolor="#666666"
     borderopacity="1.0"
     inkscape:pageopacity="0.0"
     inkscape:pageshadow="2"
     inkscape:zoom="5.6"
     inkscape:cx="7.1429037"
     inkscape:cy="58.156945"
     inkscape:document-units="px"
     inkscape:current-layer="layer1"
     showgrid="false"
     units="px"
     inkscape:window-width="1301"
     inkscape:window-height="744"
     inkscape:window-x="65"
     inkscape:window-y="24"
     inkscape:window-maximized="1" />
  <metadata
     id="metadata5626">
    <rdf:RDF>
      <cc:Work
         rdf:about="">
        <dc:format>image/svg+xml</dc:format>
        <dc:type
           rdf:resource="http://purl.org/dc/dcmitype/StillImage" />
        <dc:title></dc:title>
      </cc:Work>
    </rdf:RDF>
  </metadata>
  <g
     inkscape:label="Layer 1"
     inkscape:groupmode="layer"
     id="layer1"
     transform="translate(0,-952.36216)">
    <path
       style="opacity:1;fill:#ffffff;fill-opacity:0.80000001;stroke:none;stroke-width:8;stroke-linecap:butt;stroke-linejoin:round;stroke-miterlimit:4;stroke-dasharray:none;stroke-opacity:1"
       d="m 64.324219,972.36456 c -9.354252,-0.16374 -17.34667,8.47685 -14.8125,18.45899 -14.450421,-0.74309 -23.42128,-6.8427 -31.429688,-15.72266 -4.205235,8.45693 -1.551376,14.94879 4.490235,20.08008 -2.307641,0.19314 -4.939059,-0.89842 -6.648438,-1.81445 0.196739,7.95748 5.068291,13.20508 12.074219,15.05478 -2.384015,0.7981 -4.51234,0.5763 -6.648438,0.3828 2.420554,6.1846 7.343321,9.5653 13.603516,10.4687 -6.870746,5.8835 -12.880636,6.642 -21.722656,6.4121 35.44573,20.2026 67.96702,-9.1625 66.240234,-38.47073 1.543474,-1.71101 4.354223,-3.25425 7.298828,-7.83398 -2.925782,1.05462 -5.835221,2.04019 -8.560547,2.29297 2.774246,-1.9276 5.300295,-4.21998 6.5625,-8.36524 -2.250671,1.47834 -5.207148,2.77054 -9.390625,3.74024 -3.528543,-3.20768 -7.396281,-4.6195 -11.05664,-4.6836 z"
       id="path4840"
       inkscape:connector-curvature="0" />
  </g>
</svg>
